<?xml version="1.0" standalone="no"?>
<!DOCTYPE svg PUBLIC "-//W3C//DTD SVG 20010904//EN"
 "http://www.w3.org/TR/2001/REC-SVG-20010904/DTD/svg10.dtd">
<svg version="1.0" xmlns="http://www.w3.org/2000/svg"
 width="100.000000pt" height="100.000000pt" viewBox="0 0 100.000000 100.000000"
 preserveAspectRatio="xMidYMid meet">
<metadata>
Created by potrace 1.14, written by Peter Selinger 2001-2017
</metadata>
<g transform="translate(0.000000,100.000000) scale(0.100000,-0.100000)"
fill="#000000" stroke="none">
<path d="M0 500 l0 -500 500 0 500 0 0 500 0 500 -500 0 -500 0 0 -500z m150
122 c0 -4 -4 -12 -9 -17 -8 -9 -21 -79 -21 -115 0 -37 13 -106 23 -118 17 -21
-1 -27 -23 -7 -12 11 -20 31 -20 49 0 17 -7 42 -16 54 -14 20 -14 24 0 44 9
12 16 37 16 55 0 17 7 39 16 47 17 17 34 21 34 8z m730 -23 c6 -10 10 -33 10
-51 0 -19 5 -39 12 -46 9 -9 9 -15 0 -24 -7 -7 -12 -29 -12 -50 0 -25 -7 -45
-20 -58 -28 -28 -42 -16 -24 18 7 15 14 41 14 58 0 16 5 35 12 42 9 9 9 12 0
12 -7 0 -12 14 -12 33 0 17 -6 44 -14 59 -8 15 -12 29 -9 32 9 8 33 -5 43 -25z
m-490 -4 c0 -11 -12 -15 -51 -15 -49 0 -50 -1 -47 -27 3 -25 7 -28 46 -31 23
-2 42 -7 42 -12 0 -5 -19 -10 -42 -12 -40 -3 -43 -5 -43 -33 0 -29 2 -30 48
-33 33 -2 47 -7 47 -18 0 -11 -15 -14 -65 -14 l-65 0 0 105 0 105 65 0 c51 0
65 -3 65 -15z m145 3 c2 -7 9 -40 15 -72 14 -67 20 -62 39 27 10 44 17 57 31
57 14 0 20 -13 30 -65 7 -36 16 -67 20 -70 5 -3 13 26 20 65 10 60 15 70 32
70 16 0 19 -5 14 -22 -3 -13 -13 -60 -23 -105 -15 -72 -20 -83 -38 -83 -18 0
-23 10 -34 65 -15 75 -26 88 -35 43 -17 -83 -27 -108 -45 -108 -15 0 -22 14
-35 73 -30 136 -30 137 -12 137 9 0 18 -6 21 -12z m-67 -55 c5 -17 -26 -29
-40 -15 -6 6 -7 15 -3 22 9 14 37 9 43 -7z m0 -120 c5 -17 -26 -29 -40 -15 -6
6 -7 15 -3 22 9 14 37 9 43 -7z"/>
</g>
</svg>
